<svg width="54" height="54" viewBox="0 0 54 54" fill="none" xmlns="http://www.w3.org/2000/svg">
<path d="M19.2378 40.028C18.7093 39.8519 18.1326 39.8929 17.6344 40.142C17.1362 40.3911 16.7573 40.8279 16.5811 41.3563C14.861 46.5169 9.25849 48.1152 6.04476 48.6095C6.53902 45.3941 8.13742 39.7928 13.2979 38.0727C13.5597 37.9856 13.8018 37.8478 14.0103 37.6671C14.2188 37.4864 14.3897 37.2664 14.5132 37.0197C14.6366 36.7729 14.7102 36.5043 14.7298 36.2291C14.7494 35.9539 14.7146 35.6775 14.6273 35.4157C14.5401 35.154 14.4021 34.912 14.2213 34.7036C14.0404 34.4952 13.8203 34.3245 13.5735 34.2012C13.3267 34.0779 13.058 34.0044 12.7828 33.985C12.5075 33.9656 12.2312 34.0006 11.9695 34.088C7.6747 35.5197 4.51968 38.9315 2.84515 43.955C2.10015 46.2082 1.68862 48.5581 1.6236 50.9303C1.62362 51.4873 1.84489 52.0214 2.23873 52.4153C2.63257 52.8091 3.16672 53.0304 3.72369 53.0304C6.09589 52.9654 8.44584 52.5538 10.699 51.8088C15.7223 50.1344 19.1342 46.9793 20.566 42.6845C20.7421 42.1561 20.7011 41.5794 20.452 41.0812C20.2029 40.583 19.7662 40.2042 19.2378 40.028Z" fill="#3DC589"/>
<path d="M53.6327 4.54753C53.5036 3.65816 53.0905 2.83434 52.455 2.19889C51.8195 1.56344 50.9956 1.15038 50.1062 1.02131C47.1435 0.579216 39.4427 0.361569 31.9381 7.86584L29.5832 10.2208H13.5033C12.9515 10.2193 12.4048 10.3273 11.895 10.5384C11.3852 10.7496 10.9223 11.0597 10.5331 11.4509L2.04301 19.9411C1.50549 20.4787 1.12395 21.1521 0.939079 21.8895C0.754206 22.6269 0.77293 23.4007 0.993255 24.1282C1.21358 24.8558 1.62724 25.51 2.19014 26.0209C2.75303 26.5319 3.44405 26.8805 4.1895 27.0296L14.5679 29.1053L25.5487 40.0861L27.6243 50.4645C27.7732 51.2102 28.1217 51.9014 28.6327 52.4645C29.1437 53.0275 29.7979 53.4413 30.5257 53.6616C31.2534 53.8819 32.0273 53.9006 32.7648 53.7155C33.5023 53.5304 34.1757 53.1486 34.7132 52.6108L43.2033 44.1205C43.5944 43.7314 43.9046 43.2686 44.1157 42.7588C44.3268 42.2491 44.4348 41.7025 44.4333 41.1507V25.0706L46.7882 22.7157C54.2928 15.211 54.0749 7.51027 53.6327 4.54753ZM13.5033 14.4209H25.3831L14.9131 24.8909L5.01319 22.911L13.5033 14.4209ZM40.2331 41.1507L31.743 49.6408L29.7631 39.741L40.2331 29.2709L40.2331 41.1507Z" fill="#3DC589"/>
</svg>
