<svg width="57" height="56" viewBox="0 0 57 56" fill="none" xmlns="http://www.w3.org/2000/svg">
<path d="M28.6035 14.0078C30.9465 14.0078 33.2368 14.7026 35.1849 16.0043C37.133 17.3059 38.6513 19.156 39.5479 21.3206C40.4445 23.4852 40.6791 25.8671 40.222 28.165C39.765 30.463 38.6367 32.5738 36.98 34.2305C35.3233 35.8872 33.2125 37.0154 30.9146 37.4725C28.6167 37.9296 26.2348 37.695 24.0702 36.7984C21.9056 35.9018 20.0555 34.3834 18.7538 32.4353C17.4521 30.4873 16.7574 28.1969 16.7574 25.854C16.7574 24.2983 17.0638 22.7579 17.6591 21.3206C18.2544 19.8834 19.127 18.5775 20.227 17.4775C21.327 16.3774 22.6329 15.5049 24.0702 14.9095C25.5074 14.3142 27.0479 14.0078 28.6035 14.0078ZM41.5266 10.7771H45.8343V15.0847C45.8343 15.656 46.0612 16.2038 46.4651 16.6077C46.8691 17.0117 47.4169 17.2386 47.9881 17.2386C48.5594 17.2386 49.1072 17.0117 49.5111 16.6077C49.9151 16.2038 50.142 15.656 50.142 15.0847V10.7771H54.4497C55.0209 10.7771 55.5687 10.5501 55.9727 10.1462C56.3766 9.74228 56.6035 9.19444 56.6035 8.62321C56.6035 8.05197 56.3766 7.50413 55.9727 7.10021C55.5687 6.69628 55.0209 6.46936 54.4497 6.46936H50.142V2.16167C50.142 1.59043 49.9151 1.04259 49.5111 0.638669C49.1072 0.234745 48.5594 0.00782257 47.9881 0.00782257C47.4169 0.00782257 46.8691 0.234745 46.4651 0.638669C46.0612 1.04259 45.8343 1.59043 45.8343 2.16167V6.46936H41.5266C40.9554 6.46936 40.4075 6.69628 40.0036 7.10021C39.5997 7.50413 39.3727 8.05197 39.3727 8.62321C39.3727 9.19444 39.5997 9.74228 40.0036 10.1462C40.4075 10.5501 40.9554 10.7771 41.5266 10.7771ZM53.7928 21.8037C53.2286 21.8931 52.723 22.203 52.3873 22.6652C52.0516 23.1274 51.9133 23.704 52.0027 24.2682C52.198 25.5051 52.296 26.7555 52.2958 28.0078C52.3004 33.8076 50.1686 39.4058 46.3076 43.7336C44.5786 41.2286 42.3365 39.1202 39.7301 37.5482C36.7329 40.4106 32.7479 42.0078 28.6035 42.0078C24.4591 42.0078 20.4741 40.4106 17.477 37.5482C14.8706 39.1201 12.6284 41.2286 10.8994 43.7336C7.86376 40.3217 5.87959 36.1047 5.18594 31.5908C4.49228 27.077 5.11874 22.4588 6.98983 18.2929C8.86092 14.1269 11.8968 10.5909 15.7316 8.11095C19.5665 5.63099 24.0367 4.31291 28.6035 4.31551C29.8559 4.31539 31.1063 4.41341 32.3433 4.60867C32.6227 4.65297 32.908 4.6418 33.1831 4.57581C33.4582 4.50982 33.7175 4.39029 33.9464 4.22405C34.1752 4.05781 34.3691 3.84812 34.5169 3.60696C34.6648 3.36579 34.7636 3.09786 34.8079 2.81848C34.8522 2.5391 34.841 2.25374 34.7749 1.97869C34.7089 1.70363 34.5894 1.44428 34.4231 1.21544C34.2568 0.986595 34.0471 0.792742 33.8059 0.644951C33.5647 0.49716 33.2968 0.398324 33.0174 0.354089C29.018 -0.280552 24.9285 -0.0408326 21.0306 1.05674C17.1327 2.15431 13.519 4.08366 10.4383 6.71192C7.35763 9.34018 4.88319 12.6049 3.18538 16.2813C1.48757 19.9577 0.60673 23.9583 0.603518 28.0078C0.601967 31.893 1.41094 35.7357 2.97875 39.2905C4.54656 42.8453 6.83871 46.0339 9.70872 48.6526C9.81537 48.7724 9.93515 48.8798 10.0658 48.9728C15.1775 53.5053 21.7725 56.008 28.6042 56.0078C35.4359 56.0077 42.0308 53.5047 47.1422 48.9721C47.2719 48.8796 47.3908 48.7729 47.4968 48.6541C50.3672 46.0353 52.6598 42.8465 54.2279 39.2915C55.7959 35.7364 56.6051 31.8933 56.6035 28.0078C56.6036 26.5297 56.4878 25.0539 56.2572 23.5939C56.2131 23.3145 56.1143 23.0465 55.9665 22.8053C55.8187 22.5641 55.6248 22.3544 55.3959 22.1881C55.1671 22.0219 54.9077 21.9024 54.6326 21.8364C54.3575 21.7704 54.0721 21.7593 53.7928 21.8037Z" fill="#3DC589"/>
</svg>
